<svg width="32" height="32" viewBox="0 0 32 32" fill="none" xmlns="http://www.w3.org/2000/svg">
<path d="M32 31.998H1.90735e-06V-0.000167847H32V31.998Z" fill="#FCD0AF"/>
<path d="M8.18365 16.6987C8.18365 18.2098 8.58674 18.3779 10.3085 18.4423V18.9949H3.46484V18.4423C4.88852 18.3779 5.29232 18.2098 5.29232 16.6987V6.83795C5.29232 5.32683 4.88852 5.15694 3.50741 5.09435V4.54176H15.5792L15.6651 7.72853H15.0698C14.56 6.11369 14.0067 5.60402 11.1799 5.60402H8.98956C8.33235 5.60402 8.18356 5.75245 8.18356 6.34795V10.9189H9.26209C11.5155 10.9189 12.0046 10.5129 12.2806 9.00359H12.8332V14.1056H12.2806C11.9837 12.405 11.1328 11.9811 9.26209 11.9811H8.18356L8.18365 16.6987ZM29.2499 4.54176H16.5816L16.2875 7.73031H17.0141C17.4779 6.16912 18.1597 5.60402 19.6846 5.60402H21.4703V16.6987C21.4703 18.2098 21.0665 18.3779 19.4303 18.4423V18.9949H26.4021V18.4423C24.7652 18.3779 24.3616 18.2098 24.3616 16.6987V5.60402H26.1463C27.6719 5.60402 28.3545 6.16912 28.8175 7.73031H29.5434L29.2499 4.54176Z" fill="#3E474F"/>
</svg>
