<svg width="32" height="32" viewBox="0 0 32 32" fill="none" xmlns="http://www.w3.org/2000/svg">
<path d="M28.3634 19.7533H28.2327C27.2367 22.4853 25.1194 24.6613 22.4154 25.7306V19.7533L25.6741 16.844L22.4154 13.9346V9.86262C25.2661 9.87062 27.5954 7.59195 27.6514 4.74262C27.6514 1.23729 24.3061 0.00128669 22.4154 0.00128669C21.9261 -0.00804664 21.4367 0.0452867 20.9607 0.161287V0.335953H21.702C22.7701 0.147953 23.7887 0.861287 23.9767 1.92929C23.9874 1.98795 23.9954 2.04929 24.0007 2.11062C23.9567 3.16262 23.0674 3.97862 22.0167 3.93329C21.99 3.93195 21.9621 3.93062 21.9354 3.92795C18.6767 3.92795 14.8381 1.28129 10.6634 1.28129C7.39672 1.10662 4.59805 3.58929 4.37939 6.85195C4.27805 8.89462 5.67805 10.708 7.68072 11.128V10.968C7.06872 10.5746 6.72205 9.87595 6.77939 9.14929C6.87805 7.79595 8.05539 6.77729 9.41005 6.87595C9.42472 6.87862 9.44072 6.87995 9.45539 6.88129C12.9607 6.88129 18.618 9.79062 22.1234 9.79062H22.2541V13.98L18.9954 16.8893L22.2541 19.7986V25.864C20.9501 26.2933 19.5834 26.5053 18.2101 26.4893C15.9794 26.6013 13.7861 25.8813 12.0581 24.468L17.9634 21.8213V9.93462L9.70205 13.5706C10.4914 11.2373 12.2287 9.34662 14.4874 8.36395V8.23329C8.46605 9.57195 3.63672 13.8906 3.63672 19.84C3.63672 26.764 9.00338 32 16.7274 32C24.7421 32 28.3634 26.1826 28.3634 20.248V19.7533ZM11.8114 24.248C9.99405 22.432 9.02338 19.9346 9.13538 17.368C9.11405 16.1946 9.28072 15.0266 9.63005 13.9066L12.3647 12.656V23.9573L11.8114 24.248Z" fill="black"/>
</svg>
